<svg width="136" height="47" viewBox="0 0 136 47" fill="none" xmlns="http://www.w3.org/2000/svg">
<path d="M0.354736 11.4923L10.1248 1.17798L12.6739 11.4923H0.354736Z" fill="#EF562B"/>
<path d="M0 14.5862L3.39822 20.1851L10.4078 14.5862H0Z" fill="#EEB71E"/>
<path d="M12.6738 0L19.1173 1.178L14.9398 9.20908L12.6738 0Z" fill="#B44726"/>
<path d="M5.80566 21.8049L13.5944 15.1753L15.8946 23.5736L5.80566 21.8049Z" fill="#01639B"/>
<path d="M20.7454 3.75732L15.8945 12.9647L17.9133 21.2886L31.1532 5.74605L26.3381 4.60359L24.4267 6.33506L20.7454 3.75732Z" fill="#01639B"/>
<path d="M33.561 8.0293L31.8611 18.8581L38.5876 16.9439L33.561 8.0293Z" fill="#008257"/>
<path d="M30.6572 10.6072L20.957 22.0995L29.2403 19.3745L30.6572 10.6072Z" fill="#008257"/>
<path d="M32.2856 22.0994L43.6857 18.8582L36.3931 33.37L32.2856 22.0994Z" fill="#EF562B"/>
<path d="M20.957 25.2678L29.7364 22.7561L32.9931 32.3392L20.957 25.2678Z" fill="#B34225"/>
<path d="M20.957 28.2874L28.2496 40.5904L32.9931 35.5805L20.957 28.2874Z" fill="#28282A"/>
<path d="M18.7627 29.3926L22.9401 45.9676L26.4099 42.2846L18.7627 29.3926Z" fill="#EEB71E"/>
<path d="M25.8081 47L32.9933 39.6324L29.7366 46.4094L25.8081 47Z" fill="#28282A"/>
<path d="M40.2256 33.3718L41.1073 31.8045L46.5974 21.2075L47.1814 20.0228C47.3517 19.6741 47.5887 19.1737 47.8923 18.5215C49.1373 18.5362 50.0466 18.5435 50.6203 18.5435C51.6181 18.5435 52.5399 18.5362 53.3858 18.5215L54.9344 23.0592L58.0853 31.7859L58.7002 33.3735C57.4748 33.3588 56.7308 33.3515 56.4684 33.3515C55.873 33.3515 54.9984 33.3588 53.8445 33.3735C53.5332 32.1763 53.0848 30.7692 52.4992 29.1523H47.1603C46.5454 30.4296 45.9093 31.8367 45.2522 33.3735C43.9345 33.3588 43.1271 33.3515 42.83 33.3515C42.291 33.3504 41.4229 33.3571 40.2256 33.3718ZM48.4438 25.9839H51.7411C50.9213 23.4281 50.4728 22.0177 50.3958 21.7525C49.9295 22.8166 49.5337 23.6894 49.2083 24.3709L48.4438 25.9839Z" fill="#01639B"/>
<path d="M60.1561 33.3718C60.2906 31.9794 60.4533 29.3176 60.6441 25.3865H59.3428C59.3645 25.1608 59.3943 24.6824 59.4322 23.9512C59.4702 23.22 59.493 22.6902 59.5006 22.3619H61.0085C61.0009 22.0719 60.9971 21.8214 60.9971 21.6104C60.9871 21.0859 61.0208 20.5615 61.098 20.0431C61.1527 19.6978 61.2793 19.3691 61.4689 19.0801C61.6742 18.792 61.9345 18.5511 62.2335 18.3726C62.576 18.1605 62.9541 18.018 63.3478 17.9528C63.7741 17.8795 64.2056 17.8432 64.6377 17.8445C65.0829 17.8465 65.5277 17.8736 65.97 17.9258C66.549 18.0007 67.122 18.119 67.6846 18.2795C67.7063 19.4327 67.7524 20.3918 67.8229 21.1568C67.2194 20.9154 66.5806 20.7832 65.9342 20.7658C65.6142 20.7465 65.2976 20.8427 65.0379 21.0383C64.821 21.22 64.7126 21.5534 64.7126 22.0386L64.724 22.3653H67.164C67.1076 23.2003 67.0534 24.2085 67.0014 25.3898H64.8004L64.4507 33.3752C63.608 33.3606 62.8858 33.3532 62.2839 33.3532C61.682 33.3532 60.9727 33.3594 60.1561 33.3718Z" fill="#01639B"/>
<path d="M68.2898 33.3717L68.6151 28.5412L68.7209 25.7671C68.7274 25.2662 68.7312 24.755 68.7323 24.2337C68.7333 23.7124 68.7263 23.0557 68.7111 22.2636C69.5679 22.2783 70.2473 22.2856 70.7494 22.2856C71.3372 22.2856 72.0133 22.2783 72.7779 22.2636L72.734 23.4924C72.9459 23.2401 73.173 23.0021 73.414 22.7798C73.6009 22.6167 73.8037 22.4743 74.0191 22.355C74.2432 22.229 74.4822 22.134 74.73 22.0723C74.9842 22.0098 75.2446 21.9785 75.5059 21.9793C75.7919 21.9831 76.0766 22.0194 76.3551 22.0876C76.3616 22.8774 76.3795 23.5302 76.4087 24.0458L76.4836 25.7215C76.129 25.6126 75.7617 25.5556 75.392 25.5522C75.0177 25.5435 74.6452 25.6083 74.294 25.7435C73.9859 25.8722 73.7084 26.0692 73.4806 26.3206C73.2313 26.5988 73.0383 26.9263 72.9129 27.2837C72.7719 27.6684 72.6727 28.2777 72.6152 29.1116C72.5578 29.9455 72.5296 30.8995 72.5306 31.9737C72.5306 32.3505 72.5447 32.8183 72.5729 33.3768C71.8865 33.3621 71.1962 33.3548 70.5021 33.3548C69.8081 33.3548 69.0706 33.3604 68.2898 33.3717Z" fill="#01639B"/>
<path d="M77.5801 33.3717C77.6788 32.4871 77.7525 31.7582 77.8013 31.185C77.8501 30.6118 77.8978 29.8783 77.9445 28.9847C77.99 28.0921 78.0307 27.1059 78.0665 26.0261C78.1023 24.9463 78.1305 23.6915 78.1511 22.2619C79.0718 22.2766 79.8082 22.2839 80.3602 22.2839C80.8623 22.2839 81.5845 22.2766 82.5269 22.2619C82.4055 23.6329 82.3176 24.8391 82.2634 25.8806C82.2092 26.922 82.175 28.021 82.1609 29.1776C82.1316 31.2335 82.117 32.6315 82.117 33.3717C81.2755 33.357 80.551 33.3497 79.9437 33.3497C79.3364 33.3497 78.5485 33.357 77.5801 33.3717ZM78.2487 20.8706C78.291 20.0075 78.3121 19.3254 78.3121 18.8244C78.3121 18.6788 78.3083 18.483 78.3007 18.2371C79.1575 18.2517 79.8759 18.2591 80.4561 18.2591C81.2554 18.2591 81.956 18.2517 82.5579 18.2371C82.5362 18.4627 82.5221 18.6512 82.5156 18.8024L82.4521 20.1564C82.438 20.3595 82.431 20.5987 82.431 20.874C81.7304 20.8594 81.058 20.852 80.4138 20.852C79.749 20.8486 79.0273 20.8543 78.2487 20.869V20.8706Z" fill="#01639B"/>
<path d="M84.4578 33.3717L84.7538 28.1249L84.9165 24.0222L84.9376 22.2602C85.7163 22.2749 86.4028 22.2822 86.9971 22.2822C87.6694 22.2822 88.3245 22.2749 88.9622 22.2602L88.8889 23.7073C89.0617 23.4702 89.248 23.2441 89.4469 23.0303C89.6159 22.8604 89.8025 22.7105 90.0032 22.5835C90.217 22.4445 90.4451 22.331 90.6832 22.245C90.9394 22.1557 91.2022 22.0884 91.4689 22.0436C91.7706 21.9919 92.0758 21.9664 92.3815 21.9674C92.716 21.9652 93.0499 21.9964 93.3787 22.0605C93.6473 22.1114 93.9105 22.1896 94.1644 22.2941C94.367 22.3791 94.5592 22.4887 94.737 22.6207C94.8965 22.7414 95.0408 22.8824 95.1665 23.0405C95.327 23.2537 95.4706 23.4801 95.5959 23.7175C95.8587 23.3043 96.1936 22.9461 96.5833 22.6614C96.9455 22.415 97.3463 22.2363 97.7676 22.1333C98.7929 21.8773 99.8655 21.913 100.873 22.2365C101.4 22.4055 101.867 22.733 102.215 23.1776C102.581 23.6734 102.767 24.2878 102.74 24.9124C102.74 25.2509 102.717 25.7547 102.671 26.4239C102.624 27.093 102.559 28.2518 102.477 29.9003C102.395 31.5432 102.35 32.6947 102.342 33.3548C101.691 33.3401 101.062 33.3328 100.455 33.3328C99.7121 33.3328 98.9345 33.3401 98.1222 33.3548C98.1938 32.4341 98.267 31.2792 98.3418 29.8902C98.4166 28.5012 98.4541 27.5381 98.4541 27.001C98.4718 26.6421 98.4164 26.2833 98.2914 25.9483C98.2109 25.7461 98.0662 25.5789 97.8815 25.4744C97.621 25.3336 97.3202 25.2965 97.0354 25.3701C96.7506 25.4436 96.5014 25.6227 96.3344 25.8738C96.1478 26.1508 96.0075 26.4587 95.9196 26.7844C95.8115 27.2114 95.7439 27.6485 95.7179 28.0893C95.668 28.684 95.629 29.467 95.6008 30.4386L95.5162 33.3548C94.7571 33.3401 94.0749 33.3328 93.4698 33.3328C92.8646 33.3328 92.1332 33.3401 91.2753 33.3548C91.3393 32.7094 91.4147 31.625 91.5015 30.1017C91.5882 28.5785 91.6311 27.5596 91.63 27.045C91.645 26.7131 91.602 26.381 91.5031 26.065C91.4285 25.8623 91.306 25.6824 91.1468 25.5421C90.9721 25.4038 90.756 25.3342 90.5368 25.3457C90.2756 25.3405 90.0206 25.429 89.8146 25.5962C89.5889 25.7904 89.4091 26.0359 89.2891 26.3138C89.1199 26.7235 89.0161 27.1591 88.9817 27.6036C88.922 28.1508 88.8678 28.9869 88.819 30.1119C88.7702 31.2369 88.7382 32.3178 88.723 33.3548C87.8652 33.3401 87.1711 33.3328 86.6408 33.3328C86.0574 33.3441 85.3297 33.357 84.4578 33.3717Z" fill="#EF562B"/>
<path d="M105.688 25.4287C105.823 24.7111 105.908 24.2157 105.944 23.9427C105.979 23.6696 106.034 23.2436 106.106 22.6648C108.144 22.2134 109.895 21.9878 111.361 21.9878C112.134 21.9797 112.905 22.0764 113.654 22.2755C114.269 22.4213 114.833 22.7439 115.281 23.2064C115.67 23.634 115.865 24.2467 115.865 25.0445C115.865 25.4507 115.811 26.3647 115.702 27.7864C115.594 29.2081 115.512 31.0699 115.458 33.3718C114.764 33.3571 114.074 33.3498 113.387 33.3498C112.722 33.3498 112.013 33.3571 111.263 33.3718C111.359 32.574 111.468 30.9272 111.588 28.4313C111.32 28.5621 111.111 28.6564 110.959 28.7139C110.807 28.7715 110.54 28.8583 110.158 28.9746C109.777 29.0874 109.478 29.1856 109.264 29.2691C109.063 29.3407 108.874 29.4434 108.702 29.5737C108.564 29.6735 108.449 29.8035 108.364 29.9545C108.296 30.0885 108.262 30.2381 108.263 30.3895C108.263 30.5103 108.288 30.6297 108.338 30.7389C108.387 30.8481 108.46 30.9444 108.55 31.0208C108.74 31.1946 109.045 31.2815 109.462 31.2815C109.622 31.2804 109.782 31.2674 109.94 31.2426C110.179 31.1995 110.413 31.1361 110.642 31.053C110.437 31.6172 110.193 32.433 109.909 33.5004C109.337 33.5987 108.759 33.6497 108.179 33.6527C107.431 33.6762 106.687 33.5486 105.986 33.277C105.418 33.0415 104.943 32.614 104.637 32.0634C104.338 31.5594 104.175 30.9804 104.166 30.3878C104.165 30.0457 104.224 29.7063 104.34 29.3858C104.469 29.037 104.654 28.7131 104.886 28.4279C105.134 28.1158 105.428 27.8462 105.756 27.629C106.184 27.3628 106.642 27.1525 107.12 27.0028C107.838 26.7703 108.57 26.5848 109.311 26.4476C109.678 26.3754 110.016 26.2975 110.324 26.214C110.546 26.1583 110.764 26.0853 110.975 25.9957C111.095 25.9437 111.205 25.8698 111.3 25.7774C111.375 25.7039 111.435 25.6152 111.476 25.5167C111.512 25.4254 111.53 25.3276 111.53 25.229C111.533 25.1009 111.504 24.9741 111.444 24.8621C111.384 24.75 111.296 24.6569 111.19 24.5926C110.883 24.4243 110.538 24.347 110.193 24.3692C108.979 24.3714 107.478 24.7246 105.688 25.4287Z" fill="#EF562B"/>
<path d="M117.843 33.3717L118.168 28.5412L118.274 25.7671C118.282 25.2662 118.285 24.755 118.285 24.2337C118.285 23.7124 118.278 23.0557 118.264 22.2636C119.121 22.2783 119.8 22.2856 120.303 22.2856C120.89 22.2856 121.567 22.2783 122.331 22.2636L122.287 23.4924C122.499 23.2401 122.726 23.0021 122.967 22.7798C123.154 22.6167 123.357 22.4743 123.572 22.355C123.796 22.229 124.035 22.134 124.283 22.0723C124.537 22.0098 124.798 21.9785 125.059 21.9793C125.345 21.9831 125.63 22.0194 125.908 22.0876C125.915 22.8774 125.933 23.5302 125.962 24.0458L126.037 25.7215C125.682 25.6126 125.315 25.5556 124.945 25.5522C124.571 25.5435 124.198 25.6083 123.847 25.7435C123.539 25.8722 123.262 26.0692 123.034 26.3206C122.785 26.5988 122.591 26.9263 122.466 27.2837C122.325 27.6684 122.226 28.2777 122.168 29.1116C122.111 29.9455 122.082 30.8995 122.081 31.9737C122.081 32.3505 122.095 32.8183 122.123 33.3768C121.436 33.3621 120.746 33.3548 120.052 33.3548C119.358 33.3548 118.622 33.3604 117.843 33.3717Z" fill="#EF562B"/>
<path d="M135.091 30.1729C134.964 30.7822 134.856 31.3768 134.766 31.9568L134.531 33.2837C133.99 33.4144 133.443 33.5161 132.892 33.5884C132.513 33.6313 132.133 33.6534 131.753 33.6544C131.215 33.6609 130.678 33.6081 130.151 33.497C129.721 33.4104 129.319 33.2118 128.983 32.9198C128.688 32.6669 128.467 32.3334 128.345 31.9568C128.233 31.5839 128.178 31.1949 128.182 30.8042C128.182 30.732 128.186 30.6033 128.194 30.4183C128.201 30.2332 128.226 29.8214 128.267 29.1827L128.5 25.4185H126.834C126.87 24.9175 126.902 24.2575 126.93 23.4383L126.962 22.4227H128.721C128.763 22.0842 128.817 21.3553 128.883 20.236L130.7 19.8552C131.033 19.7897 131.742 19.6205 132.825 19.3474C132.775 20.2975 132.739 21.3203 132.718 22.416H135.138C135.082 23.9246 135.054 24.9221 135.054 25.4084H132.613L132.485 28.1283C132.471 28.5345 132.464 28.7957 132.464 28.9119C132.457 29.2063 132.495 29.4999 132.576 29.7819C132.605 29.8898 132.655 29.9904 132.723 30.0776C132.791 30.1649 132.875 30.237 132.97 30.2896C133.162 30.3924 133.375 30.4447 133.591 30.442C133.769 30.4412 133.947 30.4282 134.123 30.403C134.45 30.3448 134.773 30.2679 135.091 30.1729Z" fill="#EF562B"/>
</svg>
