<svg width="136" height="28" viewBox="0 0 136 28" fill="none" xmlns="http://www.w3.org/2000/svg">
<g clip-path="url(#clip0)">
<path d="M51.23 6.5L26.31 0L0 8.05L26.31 16.41L51.23 6.5Z" fill="#C0D35D"/>
<path d="M20.7401 16.4099L11.1401 13.4099V22.1499L12.5401 23.2699C14.2401 18.2699 20.7401 16.4299 20.7401 16.4299" fill="#4A78AA"/>
<path d="M38.6502 23.2499L40.0002 22.1299V13.3899L30.4102 16.3899C30.4102 16.3899 36.9102 18.1999 38.6102 23.2299" fill="#DCAD36"/>
<path d="M34.0698 25.2401L32.2498 25.7001L30.4198 26.2801L29.5098 26.6201C29.2098 26.7301 28.9098 26.8401 28.6198 26.9801L27.7598 27.3501L27.5498 27.4401L27.3398 27.5501L27.0498 27.6901C30.3121 27.5045 33.4785 26.5188 36.2698 24.8201L35.7898 24.9001L34.0698 25.2401Z" fill="#6EA7DC"/>
<path d="M36.06 22.72L35.3 22.82C35.04 22.82 34.78 22.89 34.5 22.95L32.78 23.28L31 23.74C30.39 23.94 29.77 24.12 29.16 24.33L28.26 24.67C27.96 24.78 27.66 24.89 27.37 25.02L26.51 25.4L26.29 25.49L26.09 25.59L25.68 25.8C25.41 25.93 25.14 26.06 24.89 26.2L24.15 26.61C23.9 26.74 23.68 26.89 23.46 27.02C23.24 27.15 23.02 27.28 22.82 27.42H22.75C23.587 27.5566 24.4322 27.6367 25.28 27.66L25.82 27.4C26.08 27.26 26.37 27.15 26.65 27.03L27.08 26.84L27.29 26.75L27.52 26.67C27.81 26.55 28.11 26.44 28.42 26.33C28.73 26.22 29.03 26.11 29.34 26.01L30.28 25.72C30.91 25.54 31.55 25.38 32.17 25.22L34 24.9L35.75 24.65C36.03 24.65 36.3 24.59 36.56 24.57H36.67L36.99 24.35C36.7692 23.7724 36.477 23.2248 36.12 22.72H36.06Z" fill="#6EA7DC"/>
<path d="M20.3399 25L20.9599 24.63C21.1699 24.5 21.3999 24.38 21.6299 24.25C21.8599 24.12 22.1099 23.98 22.3599 23.86L23.1499 23.48C23.4099 23.35 23.6999 23.24 23.9799 23.11L24.4099 22.93L24.6299 22.83L24.8499 22.75L25.7499 22.41C26.0499 22.29 26.3599 22.19 26.6699 22.1L27.6099 21.8C28.2399 21.62 28.8799 21.46 29.4999 21.31L31.3599 20.93L33.1099 20.69C33.3782 20.6463 33.6486 20.6162 33.9199 20.6H34.1599C33.5567 20.0918 32.9033 19.6461 32.2099 19.27L31.2899 19.39L30.5399 19.49C30.2799 19.49 30.0099 19.56 29.7399 19.62L27.9999 19.88L26.1899 20.34C25.5799 20.53 24.9699 20.72 24.3499 20.93L23.4499 21.27C23.1499 21.38 22.8499 21.49 22.5599 21.62L21.6999 22L21.4799 22.09L21.2799 22.19L20.8699 22.39C20.5999 22.53 20.3299 22.65 20.0799 22.8L19.3399 23.21C19.0899 23.34 18.8699 23.49 18.6499 23.62C18.4299 23.75 18.2099 23.88 18.0199 24.02L17.4499 24.4C17.2763 24.5137 17.1094 24.6372 16.9499 24.77C16.6399 24.98 16.3999 25.19 16.1899 25.36C16.9399 25.72 17.6699 26.05 18.3999 26.36L18.9299 25.94C19.1699 25.77 19.4499 25.56 19.7899 25.34C19.9599 25.23 20.1399 25.1 20.3299 24.99" fill="#6EA7DC"/>
<path d="M23.7201 25.88C23.9801 25.75 24.2401 25.63 24.5001 25.49C24.7601 25.35 25.0601 25.25 25.3401 25.13L25.7701 24.94L25.9801 24.85L26.2001 24.76L27.1101 24.42C27.4101 24.3 27.7201 24.21 28.0301 24.11L28.9701 23.81L30.8601 23.32L32.7201 23L34.4701 22.75C34.7401 22.7 35.0201 22.69 35.2801 22.66L36.0101 22.61C35.5308 21.9277 34.9737 21.3035 34.3501 20.75L33.9501 20.81C33.6807 20.8346 33.4134 20.878 33.1501 20.94L31.4301 21.27L29.6201 21.73C29.0101 21.92 28.3901 22.11 27.7801 22.32L26.8701 22.65C26.5701 22.77 26.2701 22.87 25.9801 23.01L25.1201 23.38L24.9101 23.48L24.7001 23.58L24.2901 23.78C24.0201 23.92 23.7501 24.04 23.5001 24.18L22.7601 24.6C22.5201 24.73 22.2901 24.87 22.0701 25.01C21.8501 25.15 21.6301 25.27 21.4401 25.41L20.8701 25.79L20.3701 26.15C20.0501 26.38 19.8001 26.6 19.5801 26.77C20.2001 26.97 20.8001 27.13 21.4001 27.26L21.7101 27.06C21.9101 26.95 22.1101 26.82 22.3201 26.69C22.5301 26.56 22.7701 26.45 23.0001 26.32C23.2301 26.19 23.4701 26.05 23.7301 25.93" fill="#6EA7DC"/>
<path d="M16.9301 23.6099L17.5401 23.2399C17.7501 23.1099 17.9901 22.9899 18.2201 22.8599C18.4501 22.7299 18.6901 22.5999 18.9501 22.4799L19.7301 22.0899C20.0001 21.9599 20.2901 21.8499 20.5701 21.7199L21.0001 21.5399L21.2101 21.4399L21.4401 21.3599L22.3401 21.0199C22.6401 20.8999 22.9501 20.8099 23.2601 20.7099L24.2001 20.4099L26.0901 19.9199L28.0001 19.5499L29.7501 19.2999C30.0184 19.2557 30.2887 19.2256 30.5601 19.2099L31.3201 19.1499L32.0601 19.0899C31.0821 18.5847 30.0485 18.1954 28.9801 17.9299C28.5901 17.9299 28.1501 18.0199 27.6601 18.0799L26.9101 18.1799C26.6501 18.1799 26.3801 18.2499 26.1101 18.3099L24.3901 18.6399L22.5801 19.0999C21.9701 19.2899 21.3501 19.4799 20.7401 19.6899L19.8301 20.0299C19.5301 20.1399 19.2301 20.2499 18.9401 20.3799L18.0801 20.7599L17.8701 20.8499L17.6601 20.9499L17.2501 21.1599C16.9901 21.2899 16.7201 21.4099 16.4601 21.5599L15.7201 21.9699L15.5801 22.0499C15.0802 22.755 14.6798 23.5256 14.3901 24.3399L15.2501 24.8299L15.6001 24.5599C15.8301 24.3999 16.1201 24.1799 16.4601 23.9599L17.0001 23.6099" fill="#6EA7DC"/>
<path d="M16.7798 20.52H16.8698L17.2998 20.34L17.5198 20.25L17.7398 20.16L18.6398 19.82C18.9398 19.7 19.2598 19.61 19.5698 19.51L20.4998 19.21L22.3998 18.72L24.2498 18.35L25.9998 18.06C26.2715 18.019 26.5452 17.9923 26.8198 17.98L27.5798 17.91L28.5798 17.84C27.6653 17.6347 26.7355 17.5042 25.7998 17.45C24.1662 17.268 22.5125 17.4488 20.9568 17.9795C19.4011 18.5102 17.9816 19.3776 16.7998 20.52" fill="#6EA7DC"/>
<path d="M55.5798 8.50996V13.96H62.6998V14.79H55.5798V20.58H63.8398V21.38H54.7598V7.70996H63.5798V8.50996H55.5798Z" fill="#192C3B"/>
<path d="M76.14 21.3801H75.32V18.7201C74.949 19.5494 74.3407 20.2503 73.5719 20.7344C72.8031 21.2184 71.9082 21.464 71 21.4401C70.3257 21.4577 69.6552 21.3354 69.0306 21.0808C68.406 20.8263 67.8409 20.445 67.3711 19.9611C66.9013 19.4772 66.5369 18.9011 66.3009 18.2693C66.0649 17.6374 65.9624 16.9635 66 16.2901C65.9595 15.6155 66.0598 14.9398 66.2946 14.3061C66.5294 13.6724 66.8935 13.0945 67.3638 12.6092C67.8341 12.1238 68.4003 11.7417 69.0263 11.487C69.6523 11.2324 70.3244 11.1108 71 11.1301C71.9146 11.0995 72.8177 11.3418 73.5941 11.8262C74.3706 12.3106 74.9853 13.0152 75.36 13.8501V6.8501H76.18L76.14 21.3801ZM75.32 16.2901C75.3479 15.714 75.2586 15.1382 75.0573 14.5976C74.8561 14.057 74.5472 13.563 74.1493 13.1453C73.7515 12.7277 73.2729 12.3952 72.7428 12.1681C72.2126 11.9409 71.6418 11.8238 71.065 11.8238C70.4882 11.8238 69.9174 11.9409 69.3872 12.1681C68.857 12.3952 68.3785 12.7277 67.9806 13.1453C67.5827 13.563 67.2738 14.057 67.0726 14.5976C66.8714 15.1382 66.782 15.714 66.81 16.2901C66.782 16.8662 66.8714 17.442 67.0726 17.9826C67.2738 18.5232 67.5827 19.0172 67.9806 19.4349C68.3785 19.8525 68.857 20.185 69.3872 20.4121C69.9174 20.6393 70.4882 20.7564 71.065 20.7564C71.6418 20.7564 72.2126 20.6393 72.7428 20.4121C73.2729 20.185 73.7515 19.8525 74.1493 19.4349C74.5472 19.0172 74.8561 18.5232 75.0573 17.9826C75.2586 17.442 75.3479 16.8662 75.32 16.2901Z" fill="#192C3B"/>
<path d="M88.76 21.3799H88V18.6599C87.713 19.4998 87.1586 20.2225 86.4217 20.7174C85.6848 21.2123 84.8061 21.452 83.92 21.3999C81.45 21.3999 80.02 19.9099 80.02 17.3999V11.1899H80.83V17.2499C80.7809 17.6854 80.8279 18.1264 80.9675 18.5418C81.1072 18.9572 81.3361 19.3369 81.6383 19.6544C81.9404 19.9718 82.3085 20.2191 82.7165 20.379C83.1245 20.539 83.5626 20.6075 84 20.5799C86.47 20.5199 87.91 18.8399 87.91 16.1799V11.1799H88.72L88.76 21.3799Z" fill="#192C3B"/>
<path d="M97.6202 9.75994V21.3799H95.3102V9.75994H90.9902V7.68994H101.96V9.75994H97.6202Z" fill="#192C3B"/>
<path d="M111.58 16.9999H103.72C103.857 17.7489 104.258 18.4238 104.851 18.9012C105.444 19.3786 106.189 19.6266 106.95 19.5999C107.496 19.6072 108.037 19.5028 108.541 19.293C109.045 19.0831 109.501 18.7724 109.88 18.3799L111.07 19.6599C110.519 20.2408 109.85 20.6981 109.109 21.0015C108.368 21.3049 107.571 21.4475 106.77 21.4199C106.065 21.4662 105.357 21.3623 104.695 21.1152C104.033 20.8681 103.43 20.4832 102.927 19.9862C102.425 19.4891 102.033 18.891 101.778 18.2315C101.524 17.5719 101.412 16.8659 101.45 16.1599C101.415 15.4575 101.526 14.7555 101.778 14.0986C102.029 13.4417 102.414 12.8443 102.909 12.3447C103.404 11.8451 103.998 11.4541 104.652 11.1967C105.307 10.9393 106.008 10.8212 106.71 10.8499C110.37 10.8499 111.86 13.2399 111.58 16.9999ZM109.58 15.3499C109.584 14.977 109.51 14.6073 109.363 14.2646C109.216 13.9218 109 13.6135 108.727 13.3594C108.454 13.1052 108.131 12.9109 107.778 12.7887C107.426 12.6666 107.052 12.6193 106.68 12.6499C105.934 12.6462 105.213 12.9207 104.658 13.42C104.104 13.9192 103.755 14.6073 103.68 15.3499H109.58Z" fill="#192C3B"/>
<path d="M122.5 12.5999L121.27 13.9999C120.879 13.6077 120.41 13.3011 119.893 13.0997C119.377 12.8983 118.824 12.8064 118.27 12.8299C117.843 12.8271 117.42 12.9133 117.028 13.0828C116.636 13.2524 116.283 13.5017 115.992 13.8149C115.702 14.128 115.479 14.4983 115.34 14.902C115.2 15.3057 115.146 15.7341 115.18 16.1599C115.145 16.5853 115.2 17.0132 115.34 17.4164C115.48 17.8196 115.702 18.1893 115.993 18.5017C116.284 18.8141 116.636 19.0624 117.028 19.2309C117.421 19.3993 117.843 19.4841 118.27 19.4799C118.843 19.5113 119.415 19.4154 119.945 19.1993C120.476 18.9831 120.953 18.6521 121.34 18.2299L122.6 19.4799C122.068 20.1303 121.388 20.6452 120.618 20.9824C119.848 21.3196 119.009 21.4696 118.17 21.4199C117.481 21.4441 116.793 21.3252 116.152 21.0708C115.51 20.8163 114.928 20.4318 114.443 19.9415C113.957 19.4511 113.578 18.8656 113.33 18.2217C113.082 17.5777 112.969 16.8894 113 16.1999C112.956 15.497 113.06 14.7926 113.307 14.1329C113.553 13.4732 113.937 12.873 114.431 12.3717C114.926 11.8704 115.521 11.4792 116.177 11.2239C116.834 10.9685 117.537 10.8547 118.24 10.8899C119.04 10.8433 119.84 10.9722 120.585 11.2676C121.329 11.563 122 12.0177 122.55 12.5999" fill="#192C3B"/>
<path d="M135 14.9001V21.3801H132.75V15.5301C132.781 15.1952 132.739 14.8576 132.627 14.5405C132.515 14.2234 132.335 13.9346 132.1 13.6939C131.865 13.4532 131.58 13.2665 131.266 13.1467C130.952 13.0269 130.615 12.9769 130.28 13.0001C129.865 12.9988 129.454 13.0836 129.073 13.2491C128.693 13.4147 128.351 13.6574 128.069 13.9619C127.787 14.2664 127.571 14.6261 127.435 15.0182C127.3 15.4104 127.247 15.8264 127.28 16.2401V21.3701H125.03V6.86011H127.28V13.0001C127.637 12.3034 128.195 11.7293 128.881 11.3516C129.567 10.9739 130.35 10.8097 131.13 10.8801C133.56 10.8801 135.01 12.4101 135.01 14.8801" fill="#192C3B"/>
</g>
<defs>
<clipPath id="clip0">
<rect width="135.04" height="27.71" fill="white"/>
</clipPath>
</defs>
</svg>
