<svg width="95" height="48" viewBox="0 0 95 48" fill="none" xmlns="http://www.w3.org/2000/svg">
<path d="M21.7476 31.7271C21.7447 31.7026 21.7328 31.68 21.7142 31.6637C21.6956 31.6473 21.6717 31.6384 21.647 31.6386H19.7832V31.6507H15.2969C15.2834 31.6504 15.27 31.6528 15.2574 31.6577C15.2449 31.6626 15.2334 31.6699 15.2237 31.6793C15.214 31.6886 15.2062 31.6998 15.2008 31.7122C15.1954 31.7245 15.1925 31.7378 15.1922 31.7513V33.5929C15.1925 33.6064 15.1954 33.6197 15.2008 33.6321C15.2062 33.6444 15.214 33.6556 15.2237 33.6649C15.2334 33.6743 15.2449 33.6816 15.2574 33.6865C15.27 33.6914 15.2834 33.6938 15.2969 33.6936H19.5236C19.539 33.6939 19.5542 33.6977 19.5679 33.7049C19.5816 33.712 19.5935 33.7222 19.6027 33.7346C19.6118 33.7471 19.618 33.7615 19.6207 33.7767C19.6234 33.7919 19.6225 33.8075 19.6182 33.8224C19.3564 34.8097 18.772 35.6811 17.958 36.298C17.144 36.915 16.1471 37.2421 15.1258 37.2272C14.1045 37.2124 13.1175 36.8566 12.3217 36.2163C11.526 35.576 10.9671 34.688 10.7341 33.6936C10.6555 33.3502 10.6157 32.9992 10.6153 32.647C10.6155 32.3119 10.652 31.9779 10.724 31.6507C10.7248 31.6467 10.7248 31.6426 10.724 31.6386C10.9223 30.7607 11.3749 29.9607 12.0253 29.3386C12.6757 28.7164 13.495 28.2998 14.3808 28.1406C15.2667 27.9815 16.1797 28.087 17.006 28.4438C17.8322 28.8007 18.535 29.3932 19.0264 30.1472C19.0353 30.1614 19.0479 30.173 19.0627 30.1807C19.0776 30.1885 19.0942 30.1922 19.111 30.1914H21.1861C21.2031 30.1919 21.22 30.1879 21.235 30.1798C21.25 30.1718 21.2627 30.16 21.2718 30.1456C21.281 30.1313 21.2862 30.1147 21.287 30.0977C21.2879 30.0807 21.2843 30.0638 21.2766 30.0485C20.7533 28.9315 17.3036 21.6817 15.8423 18.6143C15.8291 18.5873 15.8074 18.5653 15.7805 18.5518C15.7536 18.5384 15.7229 18.5342 15.6934 18.5399C15.5364 18.5658 15.3775 18.5786 15.2184 18.5781C15.0423 18.5785 14.8666 18.5637 14.6931 18.5338C14.6633 18.5279 14.6323 18.5323 14.6053 18.5461C14.5783 18.56 14.5567 18.5826 14.5441 18.6103L9.23459 29.7466C9.06955 30.1029 7.9062 32.7657 9.29095 35.5533C9.85569 36.6509 10.7116 37.572 11.7649 38.2156C12.8182 38.8592 14.0283 39.2006 15.2627 39.2024C15.5143 39.2024 18.648 39.2024 20.6386 36.3503C21.5844 35.0071 21.9811 33.3532 21.7476 31.7271ZM13.2117 26.1479L15.0956 22.1909C15.1036 22.1733 15.1165 22.1584 15.1327 22.148C15.149 22.1376 15.1679 22.132 15.1872 22.132C15.2065 22.132 15.2254 22.1376 15.2416 22.148C15.2579 22.1584 15.2708 22.1733 15.2788 22.1909L17.1627 26.1479C17.1714 26.1652 17.1749 26.1846 17.1726 26.2038C17.1704 26.223 17.1626 26.2411 17.1502 26.2559C17.1377 26.2707 17.1212 26.2815 17.1027 26.287C17.0842 26.2925 17.0644 26.2924 17.0459 26.2868C15.8313 25.9379 14.5431 25.9379 13.3284 26.2868C13.3101 26.2915 13.2908 26.2909 13.2727 26.2851C13.2547 26.2793 13.2386 26.2686 13.2264 26.2541C13.2142 26.2395 13.2064 26.2219 13.2038 26.2031C13.2012 26.1843 13.2039 26.1652 13.2117 26.1479Z" fill="#254FD6"/>
<path fill-rule="evenodd" clip-rule="evenodd" d="M20.2155 11.1231L17.5467 12.2784C17.5352 12.2832 17.5254 12.2914 17.5186 12.3018C17.5118 12.3122 17.5083 12.3243 17.5084 12.3368V13.3431C17.508 13.3558 17.5038 13.3679 17.4964 13.3782C17.4891 13.3885 17.4788 13.3963 17.4671 13.4008C17.4553 13.4053 17.4424 13.4063 17.4301 13.4035C17.4178 13.4008 17.4065 13.3945 17.3977 13.3854C17.1131 13.0955 16.7736 12.8652 16.399 12.708C16.0244 12.5508 15.6222 12.4698 15.216 12.4698C14.8097 12.4698 14.4075 12.5508 14.0329 12.708C13.6583 12.8652 13.3188 13.0955 13.0342 13.3854C13.0254 13.3945 13.0142 13.4008 13.0018 13.4035C12.9895 13.4063 12.9767 13.4053 12.9649 13.4008C12.9531 13.3963 12.9429 13.3885 12.9355 13.3782C12.9281 13.3679 12.924 13.3558 12.9235 13.3431V12.1516C12.9235 12.1384 12.9194 12.1256 12.9118 12.1148C12.9043 12.104 12.8936 12.0958 12.8812 12.0912L10.2305 11.1191C10.2181 11.1145 10.2075 11.1063 10.2 11.0955C10.1925 11.0847 10.1885 11.0719 10.1885 11.0587C10.1885 11.0456 10.1925 11.0327 10.2 11.0219C10.2075 11.0111 10.2181 11.0029 10.2305 10.9983L15.1938 9.16273C15.2008 9.15974 15.2083 9.1582 15.216 9.1582C15.2236 9.1582 15.2311 9.15974 15.2381 9.16273L20.2135 11.0024C20.2259 11.0067 20.2367 11.0148 20.2444 11.0254C20.2521 11.0361 20.2563 11.0489 20.2565 11.062C20.2568 11.0752 20.2529 11.0881 20.2456 11.099C20.2383 11.1099 20.2278 11.1183 20.2155 11.1231Z" fill="#254FD6"/>
<path d="M17.5952 15.5151C17.5958 16.0975 17.3826 16.6598 16.996 17.0954C16.6094 17.531 16.0763 17.8095 15.498 17.878C15.4071 17.8884 15.3157 17.8938 15.2242 17.8941C15.1138 17.8943 15.0034 17.8863 14.8942 17.8699C14.4424 17.807 14.0183 17.6154 13.6725 17.3181C13.3267 17.0207 13.0737 16.6301 12.9437 16.1929C12.8138 15.7557 12.8124 15.2904 12.9396 14.8524C13.0669 14.4144 13.3175 14.0223 13.6615 13.7228C14.0055 13.4234 14.4284 13.2292 14.8797 13.1635C15.3311 13.0978 15.7918 13.1633 16.2069 13.3522C16.622 13.5412 16.974 13.8455 17.2209 14.229C17.4678 14.6125 17.5991 15.059 17.5992 15.5151H17.5952Z" fill="#EDAC0E"/>
<path d="M33.4312 19.3557H34.0632V22.7431C33.6522 23.1315 33.1619 23.4261 32.6261 23.6066C32.0521 23.8057 31.4484 23.9057 30.8408 23.9024C29.9984 23.9145 29.167 23.7108 28.4256 23.3107C27.7237 22.9298 27.1397 22.3639 26.7369 21.6744C26.3357 20.9573 26.125 20.1493 26.125 19.3275C26.125 18.5058 26.3357 17.6978 26.7369 16.9807C27.1403 16.2917 27.7242 15.7259 28.4256 15.3444C29.1711 14.9386 30.0082 14.7307 30.8569 14.7406C31.4789 14.7345 32.0968 14.8416 32.6804 15.0566C33.2162 15.2565 33.7019 15.5712 34.1034 15.9784L33.6908 16.4172C33.3338 16.0529 32.8999 15.773 32.4208 15.598C31.9219 15.4253 31.3969 15.3402 30.869 15.3464C30.1405 15.3377 29.4219 15.5158 28.7818 15.8637C28.172 16.1937 27.6655 16.6863 27.3186 17.2866C26.9596 17.9042 26.7739 18.6072 26.7812 19.3215C26.7743 20.0223 26.9565 20.7121 27.3086 21.3181C27.6606 21.9242 28.1696 22.4241 28.7818 22.7653C29.4209 23.118 30.1411 23.2977 30.871 23.2865C31.9015 23.2865 32.7562 23.0115 33.4352 22.4613L33.4312 19.3557Z" fill="#000033"/>
<path d="M39.3865 17.6869C39.8307 18.1056 40.0527 18.7308 40.0527 19.5628V23.8277H39.4328V22.6201C39.2192 23.0148 38.8917 23.336 38.4929 23.5419C38.0333 23.7706 37.5247 23.8832 37.0115 23.87C36.2628 23.87 35.6717 23.6935 35.2383 23.3406C35.0285 23.176 34.8603 22.9644 34.7474 22.7228C34.6345 22.4812 34.58 22.2164 34.5882 21.9498C34.5806 21.6923 34.6309 21.4364 34.7354 21.2009C34.8399 20.9654 34.996 20.7564 35.192 20.5892C35.5946 20.2417 36.2326 20.068 37.1061 20.068H39.4147V19.5366C39.4147 18.9086 39.2436 18.4316 38.9055 18.1056C38.5674 17.7795 38.0682 17.6165 37.4161 17.6165C36.9782 17.6146 36.5436 17.693 36.134 17.8479C35.7519 17.9865 35.3995 18.1962 35.0954 18.4658L34.7734 18.0029C35.1256 17.6913 35.536 17.4526 35.981 17.3005C36.4572 17.1314 36.9591 17.0463 37.4644 17.0489C38.299 17.0489 38.9397 17.2616 39.3865 17.6869ZM38.5291 22.9642C38.932 22.6904 39.2405 22.2989 39.4127 21.8432V20.5812H37.1182C36.456 20.5812 35.977 20.6999 35.6811 20.9415C35.5346 21.0606 35.418 21.2124 35.3407 21.3847C35.2635 21.557 35.2277 21.7451 35.2363 21.9337C35.2288 22.1334 35.2692 22.3319 35.3543 22.5126C35.4395 22.6933 35.5667 22.851 35.7254 22.9723C36.1305 23.2474 36.6153 23.3805 37.1041 23.3507C37.607 23.3664 38.1031 23.2319 38.5291 22.9642Z" fill="#000033"/>
<path d="M42.4923 17.4426C42.9783 17.1652 43.5309 17.026 44.0904 17.04V17.672L43.9354 17.6579C43.61 17.6405 43.2847 17.6943 42.9822 17.8156C42.6798 17.9369 42.4075 18.1229 42.1843 18.3604C41.7617 18.8287 41.551 19.4794 41.5523 20.3127V23.8188H40.9062V17.1085H41.5262V18.5777C41.7142 18.1032 42.0539 17.7041 42.4923 17.4426Z" fill="#000033"/>
<path d="M51.2697 14.2656V23.828H50.6378V22.244C50.3891 22.7467 49.9996 23.1663 49.5167 23.4516C49.0196 23.7383 48.4541 23.8851 47.8803 23.8763C47.2844 23.8844 46.6972 23.7329 46.1796 23.4376C45.6783 23.1523 45.2654 22.7345 44.9861 22.2299C44.692 21.6888 44.5436 21.0805 44.5553 20.4648C44.5444 19.8465 44.6927 19.2359 44.9861 18.6916C45.2637 18.1857 45.677 17.7675 46.1796 17.484C46.6986 17.193 47.2854 17.0444 47.8803 17.0532C48.4457 17.0455 49.0025 17.1923 49.4905 17.4779C49.9673 17.7629 50.3571 18.1728 50.6176 18.6634V14.2656H51.2697ZM49.3114 22.9444C49.7185 22.7026 50.0525 22.3548 50.2775 21.9381C50.5106 21.4834 50.6322 20.9798 50.6322 20.4688C50.6322 19.9578 50.5106 19.4542 50.2775 18.9995C50.0525 18.5828 49.7185 18.235 49.3114 17.9932C48.8877 17.757 48.4107 17.633 47.9256 17.633C47.4406 17.633 46.9635 17.757 46.5399 17.9932C46.1315 18.2342 45.7968 18.5821 45.5718 18.9995C45.3386 19.4542 45.217 19.9578 45.217 20.4688C45.217 20.9798 45.3386 21.4834 45.5718 21.9381C45.7973 22.355 46.132 22.7029 46.5399 22.9444C46.9635 23.1806 47.4406 23.3046 47.9256 23.3046C48.4107 23.3046 48.8877 23.1806 49.3114 22.9444Z" fill="#000033"/>
<path d="M58.3846 20.6203H52.598C52.6049 21.1174 52.7438 21.6036 53.0006 22.0292C53.2435 22.4304 53.5915 22.7575 54.0069 22.9752C54.4511 23.2036 54.9447 23.3191 55.444 23.3113C55.8586 23.3137 56.2694 23.2322 56.6517 23.0718C57.0172 22.9201 57.3384 22.6785 57.5855 22.3694L57.966 22.784C57.6692 23.1371 57.2915 23.4133 56.865 23.5891C56.3477 23.7999 55.7906 23.8952 55.2327 23.8685C54.6747 23.8417 54.1293 23.6935 53.6346 23.4341C53.1212 23.1526 52.6956 22.7347 52.4048 22.2265C52.1026 21.688 51.9491 21.0788 51.96 20.4613C51.9497 19.8491 52.0937 19.2442 52.3787 18.7022C52.646 18.1981 53.0471 17.7775 53.538 17.4865C54.0401 17.2022 54.6073 17.0527 55.1844 17.0527C55.7614 17.0527 56.3287 17.2022 56.8308 17.4865C57.3174 17.7754 57.7145 18.1934 57.978 18.6942C58.263 19.2339 58.407 19.837 58.3967 20.4472L58.3846 20.6203ZM53.9123 17.9334C53.5346 18.1417 53.2202 18.4485 53.0026 18.821C52.7714 19.216 52.6369 19.6602 52.6101 20.1172H57.7647C57.7463 19.6621 57.6134 19.2191 57.3782 18.829C57.1509 18.4532 56.8287 18.1437 56.444 17.9317C56.0593 17.7198 55.6256 17.6127 55.1864 17.6214C54.7419 17.6134 54.3029 17.7209 53.9123 17.9334Z" fill="#000033"/>
<path d="M64.3905 17.7845C64.8802 18.2742 65.1251 18.9787 65.1251 19.8978V23.8286H64.481V19.9502C64.481 19.1934 64.2898 18.6171 63.9074 18.2212C63.525 17.8254 62.9883 17.6282 62.2973 17.6295C61.5056 17.6295 60.8823 17.8657 60.4275 18.338C59.9726 18.8103 59.7451 19.4463 59.7451 20.246V23.8286H59.1011V17.1082H59.719V18.5574C59.9449 18.091 60.307 17.7043 60.7575 17.4484C61.2554 17.1714 61.8182 17.0324 62.3878 17.0458C63.2332 17.0485 63.9007 17.2947 64.3905 17.7845Z" fill="#000033"/>
<path d="M33.1756 34.5237H28.8161C28.7933 34.5233 28.7709 34.5298 28.7518 34.5423C28.7328 34.5549 28.718 34.573 28.7094 34.5942L27.8802 36.5404C27.8712 36.5613 27.8563 36.5791 27.8374 36.5916C27.8184 36.6041 27.7962 36.6108 27.7735 36.6109H26.3022C26.2831 36.6105 26.2644 36.6054 26.2477 36.596C26.231 36.5867 26.2168 36.5733 26.2065 36.5572C26.1962 36.5411 26.1899 36.5227 26.1884 36.5037C26.1868 36.4846 26.19 36.4654 26.1976 36.4479L30.1525 27.6563C30.1616 27.6357 30.1766 27.6182 30.1956 27.6061C30.2146 27.5939 30.2367 27.5876 30.2592 27.5879H31.7587C31.7812 27.5878 31.8032 27.5942 31.8221 27.6064C31.8411 27.6185 31.8561 27.6359 31.8654 27.6563L35.8264 36.4479C35.834 36.4654 35.8371 36.4846 35.8356 36.5037C35.834 36.5227 35.8278 36.5411 35.8175 36.5572C35.8071 36.5733 35.793 36.5867 35.7763 36.596C35.7596 36.6054 35.7409 36.6105 35.7217 36.6109H34.2243C34.2016 36.6108 34.1794 36.6041 34.1604 36.5916C34.1415 36.5791 34.1266 36.5613 34.1176 36.5404L33.2763 34.5921C33.2674 34.5726 33.2533 34.5558 33.2356 34.5438C33.2178 34.5317 33.1971 34.5248 33.1756 34.5237ZM32.6282 33.0464L31.1026 29.5121C31.0941 29.4907 31.0794 29.4723 31.0604 29.4594C31.0413 29.4465 31.0189 29.4395 30.9959 29.4395C30.9729 29.4395 30.9504 29.4465 30.9314 29.4594C30.9124 29.4723 30.8977 29.4907 30.8892 29.5121L29.3857 33.0464C29.3785 33.064 29.3757 33.0831 29.3775 33.1021C29.3794 33.121 29.3859 33.1393 29.3964 33.1551C29.4069 33.171 29.4212 33.1841 29.4379 33.1932C29.4546 33.2023 29.4733 33.2072 29.4924 33.2074H32.5316C32.5498 33.2056 32.5673 33.1997 32.5827 33.1899C32.5982 33.1802 32.6111 33.1669 32.6205 33.1513C32.6299 33.1356 32.6355 33.1179 32.6368 33.0997C32.6382 33.0815 32.6352 33.0632 32.6282 33.0464Z" fill="#000033"/>
<path d="M37.555 36.251C37.0042 35.9637 36.5447 35.528 36.2286 34.9931C35.9158 34.4373 35.7515 33.8103 35.7515 33.1726C35.7515 32.5348 35.9158 31.9078 36.2286 31.3521C36.5444 30.8212 37.0015 30.3884 37.549 30.1022C38.1441 29.7937 38.8069 29.6387 39.4771 29.6513C40.0974 29.6373 40.7112 29.7791 41.2624 30.064C41.7282 30.3093 42.1112 30.6867 42.3634 31.1488C42.3773 31.1759 42.3802 31.2073 42.3716 31.2365C42.363 31.2658 42.3435 31.2906 42.3171 31.3058L41.2725 31.9096C41.247 31.9248 41.2166 31.9295 41.1877 31.9227C41.1588 31.916 41.1336 31.8983 41.1175 31.8734C40.9446 31.6134 40.7111 31.3993 40.4372 31.2494C40.0395 31.0467 39.589 30.9715 39.1471 31.0342C38.7051 31.0969 38.2932 31.2943 37.9676 31.5997C37.5881 32.033 37.3789 32.5895 37.3789 33.1655C37.3789 33.7416 37.5881 34.298 37.9676 34.7314C38.2945 35.0367 38.7076 35.2339 39.1505 35.2962C39.5934 35.3585 40.0448 35.2828 40.4432 35.0796C40.7176 34.9304 40.9512 34.7162 41.1235 34.4557C41.14 34.4312 41.1651 34.4138 41.1939 34.4071C41.2227 34.4003 41.2529 34.4048 41.2785 34.4195L42.3231 35.0233C42.3491 35.0388 42.3682 35.0638 42.3765 35.093C42.3847 35.1222 42.3815 35.1534 42.3674 35.1803C42.1076 35.6428 41.7216 36.0218 41.2544 36.2732C40.7092 36.5612 40.0996 36.7052 39.4832 36.6918C38.8139 36.7065 38.1514 36.5551 37.555 36.251Z" fill="#000033"/>
<path d="M48.7618 30.379C49.2986 30.8648 49.5669 31.5967 49.5669 32.5749V36.4937C49.5669 36.5246 49.5546 36.5543 49.5327 36.5762C49.5108 36.5981 49.4811 36.6104 49.4502 36.6104H48.162C48.1311 36.6104 48.1014 36.5981 48.0795 36.5762C48.0576 36.5543 48.0453 36.5246 48.0453 36.4937V36.1012C48.0456 36.0777 48.0386 36.0547 48.0254 36.0353C48.0121 36.016 47.9933 36.0011 47.9713 35.9927C47.9494 35.9844 47.9254 35.983 47.9027 35.9887C47.8799 35.9944 47.8594 36.007 47.844 36.0247C47.6617 36.2121 47.4433 36.3607 47.202 36.4615C46.7823 36.6311 46.3322 36.7126 45.8796 36.701C45.4149 36.7111 44.9535 36.6204 44.5271 36.4353C44.1649 36.2804 43.8542 36.0256 43.6314 35.7006C43.4199 35.3871 43.3096 35.0161 43.3154 34.6379C43.3061 34.353 43.3636 34.0698 43.4835 33.8111C43.6034 33.5525 43.7823 33.3255 44.0058 33.1485C44.4647 32.7768 45.1886 32.5903 46.1775 32.589H47.9547V32.4863C47.9682 32.2813 47.9366 32.0757 47.8622 31.8842C47.7878 31.6926 47.6724 31.5196 47.524 31.3773C47.2362 31.1197 46.8075 30.9909 46.2419 30.9909C45.8545 30.9911 45.4695 31.0515 45.1007 31.17C44.7993 31.2638 44.5152 31.4058 44.2594 31.5907C44.2462 31.6009 44.231 31.608 44.2148 31.6118C44.1986 31.6155 44.1818 31.6156 44.1655 31.6121C44.1492 31.6087 44.1339 31.6018 44.1206 31.5918C44.1072 31.5818 44.0962 31.5691 44.0883 31.5545L43.5731 30.5924C43.5596 30.5675 43.5554 30.5386 43.5613 30.511C43.5672 30.4833 43.5828 30.4586 43.6053 30.4414C43.9764 30.1835 44.3889 29.9909 44.825 29.8718C45.3486 29.7231 45.8908 29.6492 46.4351 29.6524C47.4495 29.6504 48.2265 29.894 48.7618 30.379ZM47.2986 35.2498C47.5986 35.0764 47.8297 34.8049 47.9527 34.4809C47.9556 34.465 47.9556 34.4486 47.9527 34.4326V33.7745C47.953 33.7593 47.9502 33.7443 47.9445 33.7303C47.9389 33.7162 47.9304 33.7035 47.9197 33.6927C47.909 33.682 47.8963 33.6736 47.8822 33.6679C47.8682 33.6623 47.8531 33.6595 47.838 33.6598H46.2922C45.365 33.6598 44.9015 33.9643 44.9015 34.5735C44.8973 34.7091 44.9267 34.8437 44.9871 34.9652C45.0475 35.0867 45.137 35.1914 45.2476 35.2699C45.5347 35.4566 45.8739 35.5468 46.2158 35.5276C46.5953 35.5354 46.9697 35.4393 47.2986 35.2498Z" fill="#000033"/>
<path d="M57.9339 27.1714V36.5024C57.9339 36.5333 57.9216 36.563 57.8997 36.5849C57.8778 36.6068 57.8481 36.6191 57.8172 36.6191H56.5029C56.4719 36.6191 56.4422 36.6068 56.4203 36.5849C56.3984 36.563 56.3861 36.5333 56.3861 36.5024V36.0274C56.3892 36.0028 56.3841 35.9779 56.3716 35.9566C56.3591 35.9352 56.3399 35.9186 56.317 35.9092C56.2941 35.8998 56.2688 35.8982 56.2449 35.9046C56.221 35.9111 56.1999 35.9252 56.1848 35.9448C55.9568 36.1673 55.6883 36.3443 55.3938 36.4661C54.9824 36.6333 54.5417 36.7167 54.0977 36.7117C53.4747 36.7214 52.8599 36.5702 52.3124 36.2729C51.7875 35.9855 51.3559 35.5539 51.0685 35.0291C50.7723 34.4586 50.6177 33.8252 50.6177 33.1824C50.6177 32.5396 50.7723 31.9062 51.0685 31.3357C51.3613 30.8082 51.7993 30.3758 52.3305 30.0899C52.8777 29.7918 53.4928 29.6406 54.1158 29.6511C54.5435 29.6457 54.9682 29.7243 55.3657 29.8825C55.652 29.9978 55.9142 30.1657 56.1386 30.3777C56.1544 30.3961 56.1756 30.409 56.1992 30.4145C56.2228 30.4201 56.2476 30.418 56.2699 30.4086C56.2923 30.3992 56.3111 30.383 56.3237 30.3622C56.3362 30.3415 56.3419 30.3173 56.3398 30.2931V27.1714C56.3398 27.1405 56.3521 27.1108 56.374 27.0889C56.3959 27.067 56.4256 27.0547 56.4566 27.0547H57.8353C57.863 27.059 57.8882 27.0732 57.9063 27.0947C57.9244 27.1161 57.9342 27.1434 57.9339 27.1714ZM55.3496 35.0572C55.6599 34.8798 55.9143 34.619 56.0842 34.3045C56.2615 33.9523 56.3539 33.5636 56.3539 33.1693C56.3539 32.775 56.2615 32.3863 56.0842 32.0341C55.9143 31.7196 55.6599 31.4589 55.3496 31.2814C55.0286 31.1084 54.6696 31.0178 54.305 31.0178C53.9403 31.0178 53.5814 31.1084 53.2604 31.2814C52.9501 31.4589 52.6956 31.7196 52.5257 32.0341C52.3484 32.3863 52.2561 32.775 52.2561 33.1693C52.2561 33.5636 52.3484 33.9523 52.5257 34.3045C52.6956 34.619 52.9501 34.8798 53.2604 35.0572C53.5814 35.2302 53.9403 35.3208 54.305 35.3208C54.6696 35.3208 55.0286 35.2302 55.3496 35.0572Z" fill="#000033"/>
<path d="M65.8698 33.6844H60.7213C60.7037 33.6842 60.6862 33.6881 60.6703 33.6956C60.6544 33.7032 60.6404 33.7143 60.6293 33.728C60.6183 33.7418 60.6105 33.7578 60.6065 33.775C60.6026 33.7922 60.6026 33.8101 60.6066 33.8273C60.7104 34.2543 60.9621 34.6308 61.3171 34.89C61.7515 35.1972 62.2747 35.3535 62.8065 35.3348C63.4643 35.3553 64.1039 35.1168 64.5877 34.6706C64.5986 34.6595 64.6116 34.6506 64.6259 34.6446C64.6403 34.6385 64.6557 34.6354 64.6712 34.6354C64.6868 34.6354 64.7022 34.6385 64.7166 34.6446C64.7309 34.6506 64.7439 34.6595 64.7548 34.6706L65.4713 35.4938C65.4899 35.5153 65.5001 35.5428 65.5001 35.5713C65.5001 35.5997 65.4899 35.6272 65.4713 35.6488C65.167 35.9856 64.7878 36.2462 64.3643 36.4096C63.7842 36.6223 63.1674 36.7171 62.5501 36.6884C61.9329 36.6598 61.3275 36.5082 60.7696 36.2425C60.2136 35.9595 59.7505 35.5229 59.4352 34.9846C59.1207 34.4319 58.9608 33.8048 58.9723 33.1691C58.963 32.5354 59.1213 31.9105 59.4311 31.3577C59.7284 30.8289 60.1676 30.3939 60.6992 30.1017C61.2605 29.7957 61.8915 29.6404 62.5307 29.6509C63.1583 29.641 63.7776 29.7942 64.3281 30.0957C64.8516 30.3856 65.2811 30.8193 65.5659 31.3456C65.8708 31.918 66.0239 32.559 66.0107 33.2074C66.0107 33.2999 66.0047 33.4227 65.9926 33.5757C65.9905 33.6063 65.9765 33.6349 65.9535 33.6552C65.9305 33.6755 65.9005 33.686 65.8698 33.6844ZM61.2144 31.3979C60.8889 31.6757 60.6681 32.0563 60.5885 32.4767C60.5852 32.4936 60.5857 32.5111 60.59 32.5277C60.5942 32.5444 60.6021 32.56 60.6131 32.5732C60.624 32.5865 60.6378 32.5972 60.6534 32.6045C60.669 32.6118 60.686 32.6156 60.7032 32.6156H64.3261C64.3431 32.6156 64.3599 32.6118 64.3753 32.6046C64.3907 32.5974 64.4043 32.5869 64.4153 32.5739C64.4262 32.5608 64.4341 32.5456 64.4386 32.5291C64.443 32.5127 64.4437 32.4955 64.4408 32.4787C64.3673 32.0624 64.1543 31.6834 63.837 31.404C63.4727 31.0896 63.0036 30.9237 62.5227 30.939C62.045 30.9256 61.5791 31.0891 61.2144 31.3979Z" fill="#000033"/>
<path d="M77.7833 30.4037C78.2905 30.9069 78.5441 31.661 78.5441 32.666V36.4901C78.5441 36.5211 78.5318 36.5508 78.5099 36.5727C78.4881 36.5946 78.4584 36.6069 78.4274 36.6069H77.0487C77.0177 36.6069 76.988 36.5946 76.9661 36.5727C76.9443 36.5508 76.932 36.5211 76.932 36.4901V32.8672C76.932 32.2648 76.7978 31.8112 76.5294 31.5067C76.3836 31.3507 76.2052 31.2289 76.0069 31.1499C75.8086 31.0709 75.5952 31.0367 75.3822 31.0498C75.1393 31.0391 74.8969 31.0815 74.6721 31.1739C74.4472 31.2664 74.2451 31.4067 74.0799 31.5851C73.7539 31.9407 73.5909 32.4499 73.5909 33.1128V36.4881C73.5909 36.5191 73.5786 36.5488 73.5567 36.5707C73.5348 36.5926 73.5051 36.6049 73.4741 36.6049H72.0954C72.0645 36.6049 72.0348 36.5926 72.0129 36.5707C71.991 36.5488 71.9787 36.5191 71.9787 36.4881V32.8652C71.9787 32.2628 71.8445 31.8092 71.5761 31.5046C71.4304 31.3487 71.2519 31.2269 71.0536 31.1479C70.8553 31.0689 70.642 31.0347 70.4289 31.0478C70.1857 31.0357 69.9427 31.0767 69.7168 31.1677C69.491 31.2588 69.2875 31.3978 69.1206 31.5751C68.7986 31.9293 68.6376 32.4385 68.6376 33.1108V36.4861C68.6376 36.5171 68.6253 36.5468 68.6034 36.5687C68.5815 36.5905 68.5518 36.6028 68.5208 36.6028H67.1421C67.1112 36.6028 67.0815 36.5905 67.0596 36.5687C67.0377 36.5468 67.0254 36.5171 67.0254 36.4861V29.8442C67.0254 29.8288 67.0284 29.8136 67.0343 29.7995C67.0401 29.7853 67.0487 29.7724 67.0596 29.7616C67.0704 29.7508 67.0833 29.7422 67.0975 29.7363C67.1116 29.7304 67.1268 29.7274 67.1421 29.7274H68.4423C68.4577 29.7274 68.4728 29.7304 68.487 29.7363C68.5012 29.7422 68.514 29.7508 68.5249 29.7616C68.5357 29.7724 68.5443 29.7853 68.5502 29.7995C68.5561 29.8136 68.5591 29.8288 68.5591 29.8442V30.3131C68.5582 30.3368 68.5646 30.3602 68.5774 30.3801C68.5902 30.4001 68.6087 30.4157 68.6305 30.4248C68.6524 30.434 68.6765 30.4363 68.6997 30.4315C68.7229 30.4266 68.744 30.4148 68.7603 30.3977C68.9842 30.1839 69.2455 30.0134 69.5312 29.8945C69.9409 29.7286 70.3794 29.6458 70.8214 29.6509C71.295 29.6421 71.7644 29.7412 72.194 29.9408C72.5392 30.1062 72.8364 30.357 73.0575 30.6694C73.0672 30.6841 73.0802 30.6964 73.0955 30.7052C73.1107 30.7141 73.1279 30.7192 73.1455 30.7201C73.1631 30.7211 73.1808 30.7179 73.1969 30.7109C73.2131 30.7038 73.2274 30.693 73.2386 30.6794C73.5179 30.3676 73.8612 30.1198 74.245 29.9528C74.7115 29.7474 75.2166 29.6445 75.7263 29.6509C76.5891 29.6509 77.2748 29.9019 77.7833 30.4037Z" fill="#000033"/>
<path d="M86.2287 29.7286C86.248 29.7287 86.267 29.7335 86.284 29.7427C86.3009 29.752 86.3153 29.7652 86.3259 29.7814C86.3365 29.7975 86.3429 29.8161 86.3445 29.8353C86.3462 29.8545 86.3431 29.8739 86.3354 29.8916L83.1835 37.1655C82.8829 37.9143 82.518 38.4409 82.0886 38.7455C81.6298 39.0584 81.0838 39.2183 80.5287 39.2024C80.1825 39.2016 79.8386 39.1452 79.5103 39.0354C79.2365 38.9491 78.9812 38.8126 78.7575 38.6328C78.7369 38.6156 78.7229 38.5916 78.7181 38.5651C78.7134 38.5386 78.718 38.5113 78.7314 38.4879L79.2607 37.5117C79.2691 37.4967 79.2807 37.4838 79.2947 37.4738C79.3087 37.4638 79.3248 37.457 79.3417 37.4539C79.3586 37.4508 79.376 37.4515 79.3926 37.456C79.4092 37.4604 79.4247 37.4684 79.4378 37.4795C79.5715 37.5842 79.7192 37.6696 79.8766 37.7331C80.0788 37.8174 80.2956 37.8612 80.5146 37.8619C80.7677 37.8722 81.0166 37.7947 81.2191 37.6426C81.4435 37.4409 81.6172 37.1892 81.7263 36.9079L81.8229 36.6845C81.8298 36.6701 81.8335 36.6542 81.8335 36.6382C81.8335 36.6222 81.8298 36.6064 81.8229 36.5919L78.9105 29.8916C78.9028 29.8739 78.8997 29.8545 78.9014 29.8353C78.903 29.8161 78.9094 29.7975 78.92 29.7814C78.9306 29.7652 78.945 29.752 78.9619 29.7427C78.9789 29.7335 78.9979 29.7287 79.0172 29.7286H80.4381C80.4609 29.7287 80.483 29.7354 80.502 29.7479C80.5209 29.7604 80.5358 29.7782 80.5448 29.799L82.5736 34.5691C82.5828 34.5898 82.5978 34.6073 82.6167 34.6196C82.6356 34.6319 82.6577 34.6385 82.6803 34.6385C82.7029 34.6385 82.725 34.6319 82.7439 34.6196C82.7629 34.6073 82.7778 34.5898 82.787 34.5691L84.8299 29.797C84.8389 29.7762 84.8538 29.7584 84.8727 29.7459C84.8917 29.7334 84.9139 29.7267 84.9366 29.7266L86.2287 29.7286Z" fill="#000033"/>
</svg>
