<?xml version="1.0" encoding="utf-8"?>
<!-- Generator: Adobe Illustrator 21.0.0, SVG Export Plug-In . SVG Version: 6.00 Build 0)  -->
<svg version="1.1" id="Layer_1" xmlns="http://www.w3.org/2000/svg" xmlns:xlink="http://www.w3.org/1999/xlink" x="0px" y="0px"
	 viewBox="0 0 478 153" style="enable-background:new 0 0 478 153;" xml:space="preserve">
<style type="text/css">
	.st0{fill:#FFFFFF;}
	.st1{font-family:'BebasNeue-Regular';}
	.st2{font-size:68.2548px;}
</style>
<g>
	<path class="st0" d="M80.3,140.3c7.2-9.4,14.4-18.7,21.8-28.5c-3.5,0.8-6.4,1.6-9.4,2.3c-12.6,2.8-25.3,4.7-38.3,4.3
		c-9-0.3-17.8-1.7-26-5.9c-11.5-5.9-16.7-16.1-15.1-29c2-15.9,9.7-28.9,20.8-39.9c17.1-16.9,37.5-27.2,61.5-30
		c6.3-0.7,12.7-0.4,19.1,0.5c6.4,1,12.3,3,17.9,6c0.3,0.2,0.6,0.4,1.2,0.7c-10.7,7.6-21.2,15-31.7,22.5c4.8-7.1,12.3-12.3,14.5-21.5
		c-2.3-0.2-4.2-0.5-6.2-0.6c-11.3-0.4-22,2.2-32.4,6.4C66.5,32.2,55.8,38.4,46.6,47c-9.1,8.6-15.9,18.6-19.6,30.7
		c-0.6,2-1,4.2-1.3,6.3c-1.3,11.6,3.7,19.4,14.9,23.1c8.4,2.8,17,3.2,25.7,2.7c17.5-0.9,34.4-4.4,51-9.8c0.2-0.1,0.3,0,0.6,0
		c-5.3,6.8-10.6,13.6-15.8,20.4c16.5-5.9,33.2-9.2,50.8-7.4C126.5,115.9,102.6,125.9,80.3,140.3z"/>
	<path class="st0" d="M59.5,106c-5.1-0.6-10.3-1.9-14.4-5.6c-4.5-4.1-5.6-9.3-5.1-15.1c0.8-8.9,4.5-16.7,9.3-23.9
		c8.4-12.6,19.3-22.4,32.9-29.2c5.1-2.5,10.3-4.4,16.1-5c-0.5,0.2-1.1,0.5-1.6,0.7c-15,6.4-28.1,15.6-38.6,28.2
		c-7.1,8.5-11.9,18.2-13.5,29.3c-1,6.8,1.9,11.9,7,15.9C54.1,103.2,57,104.5,59.5,106z"/>
	<path class="st0" d="M41.9,104.2c-8.6-3.8-12.7-11.6-11.4-21c1.5-10.8,6.8-19.9,13.7-28.1c6.2-7.5,13.6-13.7,21.9-18.8
		c-0.2,0.2-0.4,0.5-0.7,0.7c-0.3,0.2-0.6,0.4-0.8,0.7c-11.7,9.8-21,21.4-26.4,35.8c-2.4,6.3-3.6,12.8-2.3,19.5
		C36.8,97.4,38.8,101.1,41.9,104.2z"/>
</g>
<path class="st0" d="M254-501.5c-0.4,0.3-0.7,0.5-1,0.7c-0.2-0.3-0.5-0.5-0.5-0.8c0-0.3,0.4-0.5,0.6-0.8
	C253.3-502.2,253.5-501.9,254-501.5z"/>
<path d="M212-503.3c-0.2,0.2-0.5,0.4-0.6,0.7c0,0.2,0.4,0.4,0.5,0.5c-0.1,0.1-0.5,0.4-0.5,0.6c0,0.2,0.4,0.5,0.6,0.6
	c-0.6,0.2-0.9-0.2-0.8-0.9C211.3-502.3,210.7-503.5,212-503.3z"/>
<text transform="matrix(1 0 0 1 156.5 94.1211)" class="st0 st1 st2">Coursesgram</text>
</svg>
