<?xml version="1.0" encoding="utf-8"?><svg version="1.1" xmlns="http://www.w3.org/2000/svg" viewBox="0 0 311.5 74.9"><style type="text/css">.c{fill:#01b7f2;}</style><polygon class="c" points="97.4,50.8 105,12.2 117.3,40.1 130.1,12.2 136.9,50.8 131.3,50.8 127.8,29.1 117.2,52.4 106.9,29.1 103,50.8"/><polygon class="c" points="164.3,19.9 149.9,19.9 149.9,28.6 163.9,28.6 163.9,33.7 149.9,33.7 149.9,45.7 164.3,45.7 164.3,50.8 144.5,50.8 144.5,14.9 164.3,14.9"/><path class="c" d="M171.4,50.8V14.9h7.5c2.9-0.1,5.8,0.3,8.6,1.1c2.3,0.7,4.4,1.9,6.1,3.6c3.7,3.4,5.8,8.3,5.6,13.3 c0.2,7.7-4.6,14.6-11.9,17c-2.7,0.8-5.6,1.1-8.4,1L171.4,50.8z M176.8,45.7h2.4c2.1,0.1,4.1-0.2,6.1-0.8c5.2-1.7,8.6-6.7,8.4-12.1 c0.1-3.6-1.3-7.1-4-9.6c-2.4-2.2-5.9-3.3-10.5-3.3h-2.4L176.8,45.7z"/><rect x="206" y="14.9" class="c" width="5.4" height="35.9"/><polygon class="c" points="225.5,28.9 241,28.9 241,14.9 246.4,14.9 246.4,50.8 241,50.8 241,34 225.5,34 225.5,50.8 220.1,50.8 220.1,14.9 225.5,14.9"/><path class="c" d="M260.4,14.9v21.6c0,3.1,0.5,5.3,1.5,6.8c2.8,3.5,7.8,4.1,11.4,1.4c0.5-0.4,1-0.9,1.4-1.4c1-1.4,1.5-3.6,1.5-6.8 V14.9h5.4V38c0.1,3.5-1.2,6.8-3.5,9.3c-5.3,5.4-14,5.5-19.3,0.2c-0.1-0.1-0.1-0.1-0.2-0.2c-2.4-2.5-3.7-5.9-3.5-9.3V14.9H260.4z"/><path class="c" d="M290.2,50.8V14.9h5.4c1.9,0,3.9,0.1,5.7,0.6c1.4,0.3,2.6,1,3.6,1.9c1,1,1.9,2.1,2.4,3.4 c0.6,1.3,0.9,2.7,0.9,4.2c0,2.5-1.1,4.9-3,6.5c1.8,0.6,3.4,1.8,4.5,3.4c1.1,1.7,1.7,3.6,1.7,5.6c0,2.7-1,5.3-3,7.1 c-1.1,1.1-2.5,2-4,2.5c-2,0.5-4.1,0.7-6.1,0.7L290.2,50.8z M295.6,30.3h1.7c1.6,0.1,3.2-0.3,4.4-1.3c1-1.1,1.5-2.5,1.4-4 c0.1-1.4-0.4-2.8-1.4-3.8c-1.2-1-2.7-1.4-4.2-1.3h-1.9V30.3z M295.6,45.7h3.4c2.4,0,4.2-0.5,5.4-1.4c1.2-1,1.9-2.5,1.8-4 c0-1.5-0.6-2.9-1.8-3.9c-1.1-1-3.2-1.6-6.1-1.6h-2.8L295.6,45.7z"/><path class="c" d="M6.6,43H24l5.9-30.4l13.6,30.8l14.1-30.8L62.9,43h17.4c2.5-3.2,4.3-6.9,5.3-10.8c0.8-2.4,1.2-5,1.2-7.5 C86.9,11,75.9,0,62.4,0c-7.3,0-14.2,3.3-18.9,8.9C34.8-1.5,19.4-3,8.9,5.6C3.3,10.3,0,17.2,0,24.6c0,2.6,0.4,5.1,1.2,7.6 C2.3,36.1,4.1,39.7,6.6,43"/><path class="c" d="M63.4,45.7h-6l-2.3-14.4L43.4,57L32,31.2l-2.6,14.5H8.7C21,60.8,43.5,74.9,43.5,74.9s22.5-14.1,34.8-29.3H63.4z"/></svg>
